# xmcd
#
# Track frame offsets:
#	150
#	18189
#	45678
#	60342
#	88281
#	105795
#	123196
#	136547
#	151323
#	166512
#	182451
#	197715
#	218679
#	234768
#	259257
#	276021
#	302460
#	331374
#
# Disc length: 4660 seconds
#
# Revision: 1
# Processed by: cddbd v1.5.2PL0 Copyright (c) Steve Scherf et al.
# Submitted via: audiograbber 1.83.01
#
DISCID=d4123212
DTITLE=Various Artist - Gothic Compilation Part LII [CD1/2)
DYEAR=2011
DGENRE=Gothic
TTITLE0=Peter Murphy - I Spit Roses
TTITLE1=The House Of Usher - How Far Can We Go
TTITLE2=Mephisto Walz - Alexandria (Club Mix)
TTITLE3=Corpus Delicti - Broken
TTITLE4=Coma Divine - Praise The Fallen
TTITLE5=Saints Of Ruin - Glampyre
TTITLE6=The Mission Veo - The Jacket
TTITLE7=The Last Days Of Jesus - Ludzie Wschodu
TTITLE8=Rezurex - Vampire Kiss
TTITLE9=Tanzwut - Heiduckentanz
TTITLE10=Nidi D'Arac - Ronde Noe
TTITLE11=Lakobeil - Cairo
TTITLE12=Descendants Of Cain - Pornography For The Soul
TTITLE13=Dead Guitars - Mesmerized
TTITLE14=Alien Hand Syndrome - Raison Raison
TTITLE15=Six Times Zero - Dead Duck
TTITLE16=My Dying Bride - In Your Dark Pavilion (Edit)
TTITLE17=Narsilion - En Les Portes Del Eternitat
EXTD=
EXTT0=
EXTT1=
EXTT2=
EXTT3=
EXTT4=
EXTT5=
EXTT6=
EXTT7=
EXTT8=
EXTT9=
EXTT10=
EXTT11=
EXTT12=
EXTT13=
EXTT14=
EXTT15=
EXTT16=
EXTT17=
PLAYORDER=
